<svg width="19" height="19" viewBox="0 0 19 19" fill="none" xmlns="http://www.w3.org/2000/svg">
<path d="M15.8333 9.49984H3.16666M12.6667 3.1665H14.25C14.6699 3.1665 15.0726 3.33332 15.3696 3.63025C15.6665 3.92718 15.8333 4.32991 15.8333 4.74984V6.33317M6.33332 15.8332H4.74999C4.33006 15.8332 3.92734 15.6664 3.6304 15.3694C3.33347 15.0725 3.16666 14.6698 3.16666 14.2498V12.6665M15.8333 12.6665V14.2498C15.8333 14.6698 15.6665 15.0725 15.3696 15.3694C15.0726 15.6664 14.6699 15.8332 14.25 15.8332H12.6667M3.16666 6.33317V4.74984C3.16666 4.32991 3.33347 3.92718 3.6304 3.63025C3.92734 3.33332 4.33006 3.1665 4.74999 3.1665H6.33332" stroke="#FAFAFA" stroke-width="2" stroke-linecap="round" stroke-linejoin="round"/>
</svg>
